# xmcd
#
# Track frame offsets: 
#        150
#        15712
#        29362
#        44492
#        59834
#        74073
#        89870
#        102794
#        118153
#        133981
#        147748
#        162850
#        177806
#        191592
#        204456
#        218803
#        233830
#        247306
#        260630
#        275272
#        287748
#
# Disc length: 4004 seconds
#
# Revision: 2
# Processed by: cddbd v1.5.2PL0 Copyright (c) Steve Scherf et al.
# Submitted via: ExactAudioCopy v1.3
#
DISCID=5d0fa215
DTITLE=Bessie Smith - The Rough Guide to Blues Legends: Bessie Smith (
DTITLE=Disc 1)
DYEAR=2011
DGENRE=Blues
TTITLE0=Down Hearted Blues
TTITLE1=A Good Man Is Hard To Find
TTITLE2=I Ain't Gonna Play No Second Fiddle
TTITLE3=Careless Love
TTITLE4=Muddy Water (A Mississippi Moan)
TTITLE5=T'ain't Nobody's Bizness If I Do
TTITLE6=I Need A Little Sugar In My Bowl
TTITLE7=Send Me To The 'Lectric Chair
TTITLE8=Gimme a Pigfoot and a Bottle of Beer
TTITLE9=Empty Bed Blues (Part One)
TTITLE10=Empty Bed Blues (Part Two)
TTITLE11=Back Water Blues
TTITLE12=The Yellow Dog Blues
TTITLE13=Me And My Gin
TTITLE14=St Louis Blues
TTITLE15=Jazzbo Brown From Memphis Town
TTITLE16=Nobody Knows You When You're Down and Out
TTITLE17=After You've Gone
TTITLE18=Jailhouse Blues
TTITLE19=Dirty No-Gooder's Blues
TTITLE20=I'd Rather Be Dead and Buried In My Grave
EXTD=YEAR: 2011
EXTT0=
EXTT1=
EXTT2=
EXTT3=
EXTT4=
EXTT5=
EXTT6=
EXTT7=
EXTT8=
EXTT9=
EXTT10=
EXTT11=
EXTT12=
EXTT13=
EXTT14=
EXTT15=
EXTT16=
EXTT17=
EXTT18=
EXTT19=
EXTT20=
PLAYORDER=
